<?xml version="1.0" encoding="UTF-8"?>
<svg xmlns="http://www.w3.org/2000/svg" xmlns:xlink="http://www.w3.org/1999/xlink" width="200px" height="44px" viewBox="0 0 200 44" version="1.1">
<g id="surface1">
<path style=" stroke:none;fill-rule:nonzero;fill:rgb(100%,100%,100%);fill-opacity:1;" d="M 156.03125 0 C 170.539062 0 185.050781 0 200 0 C 200 14.519531 200 29.039062 200 44 C 185.488281 44 170.980469 44 156.03125 44 C 156.03125 42.183594 156.03125 40.371094 156.03125 38.5 C 167.015625 38.5 177.996094 38.5 189.3125 38.5 C 189.3125 36.886719 189.3125 35.273438 189.3125 33.609375 C 178.328125 33.609375 167.347656 33.609375 156.03125 33.609375 C 156.03125 22.519531 156.03125 11.429688 156.03125 0 Z M 156.03125 0 "/>
<path style=" stroke:none;fill-rule:nonzero;fill:rgb(100%,100%,100%);fill-opacity:1;" d="M 0 34.222656 C 62.273438 34.222656 124.542969 34.222656 188.703125 34.222656 C 188.703125 35.433594 188.703125 36.640625 188.703125 37.890625 C 166.730469 38.140625 144.761719 38.238281 122.785156 38.226562 C 119.632812 38.226562 116.480469 38.222656 113.324219 38.222656 C 113.003906 38.222656 113.003906 38.222656 112.679688 38.222656 C 111.59375 38.222656 110.503906 38.222656 109.417969 38.222656 C 101.847656 38.222656 94.277344 38.21875 86.703125 38.21875 C 79.375 38.214844 72.050781 38.210938 64.722656 38.210938 C 64.492188 38.210938 64.265625 38.210938 64.03125 38.210938 C 61.734375 38.210938 59.441406 38.210938 57.148438 38.210938 C 52.480469 38.210938 47.8125 38.207031 43.144531 38.207031 C 42.820312 38.207031 42.820312 38.207031 42.492188 38.207031 C 28.328125 38.203125 14.164062 38.199219 0 38.195312 C 0 36.882812 0 35.574219 0 34.222656 Z M 0 34.222656 "/>
<path style=" stroke:none;fill-rule:nonzero;fill:rgb(100%,100%,100%);fill-opacity:1;" d="M 45.191406 3.667969 C 46.085938 4.300781 46.644531 4.78125 46.839844 5.894531 C 46.867188 6.714844 46.851562 7.523438 46.8125 8.34375 C 46.800781 8.773438 46.800781 8.773438 46.792969 9.207031 C 46.773438 9.90625 46.75 10.605469 46.71875 11.304688 C 46.890625 11.304688 47.066406 11.300781 47.246094 11.296875 C 49.070312 11.269531 50.890625 11.25 52.714844 11.238281 C 53.394531 11.230469 54.074219 11.222656 54.753906 11.214844 C 55.730469 11.199219 56.710938 11.191406 57.691406 11.1875 C 57.992188 11.179688 58.292969 11.171875 58.605469 11.167969 C 60.699219 11.167969 62.386719 11.507812 63.976562 12.949219 C 65.960938 15.148438 65.753906 17.746094 65.746094 20.523438 C 65.746094 21.214844 65.75 21.90625 65.757812 22.59375 C 65.761719 23.039062 65.761719 23.484375 65.761719 23.925781 C 65.761719 24.328125 65.761719 24.726562 65.761719 25.136719 C 65.519531 27.558594 64.40625 28.925781 62.578125 30.480469 C 61.457031 31.203125 60.355469 31.207031 59.046875 31.214844 C 58.53125 31.21875 58.53125 31.21875 58.003906 31.226562 C 57.632812 31.226562 57.261719 31.226562 56.878906 31.230469 C 56.308594 31.230469 56.308594 31.230469 55.722656 31.234375 C 54.917969 31.238281 54.109375 31.238281 53.300781 31.238281 C 52.269531 31.242188 51.238281 31.25 50.203125 31.257812 C 49.214844 31.265625 48.230469 31.265625 47.242188 31.265625 C 46.871094 31.269531 46.5 31.273438 46.121094 31.277344 C 45.773438 31.277344 45.429688 31.277344 45.074219 31.277344 C 44.773438 31.277344 44.46875 31.277344 44.15625 31.277344 C 43.175781 31.140625 42.785156 31.011719 42.136719 30.25 C 42.015625 29.394531 41.96875 28.660156 41.980469 27.804688 C 41.976562 27.554688 41.976562 27.304688 41.972656 27.050781 C 41.96875 26.226562 41.972656 25.402344 41.976562 24.578125 C 41.972656 24.007812 41.972656 23.433594 41.972656 22.863281 C 41.96875 21.664062 41.972656 20.464844 41.976562 19.265625 C 41.984375 17.726562 41.980469 16.1875 41.972656 14.652344 C 41.96875 13.46875 41.972656 12.289062 41.972656 11.105469 C 41.976562 10.539062 41.972656 9.972656 41.972656 9.40625 C 41.96875 8.613281 41.972656 7.820312 41.980469 7.027344 C 41.976562 6.675781 41.976562 6.675781 41.972656 6.316406 C 41.996094 4.734375 41.996094 4.734375 42.703125 3.980469 C 43.621094 3.539062 44.179688 3.5 45.191406 3.667969 Z M 46.414062 15.890625 C 46.414062 19.417969 46.414062 22.945312 46.414062 26.582031 C 48.304688 26.613281 50.195312 26.636719 52.085938 26.652344 C 52.730469 26.65625 53.371094 26.664062 54.015625 26.675781 C 54.941406 26.691406 55.863281 26.699219 56.789062 26.703125 C 57.078125 26.710938 57.363281 26.714844 57.660156 26.722656 C 59.234375 26.726562 59.234375 26.726562 60.640625 26.082031 C 61.191406 25.152344 61.214844 24.546875 61.199219 23.46875 C 61.195312 23.105469 61.195312 22.742188 61.191406 22.367188 C 61.183594 21.988281 61.171875 21.609375 61.164062 21.21875 C 61.160156 20.835938 61.160156 20.457031 61.15625 20.066406 C 61.164062 18.097656 61.164062 18.097656 60.761719 16.195312 C 60.046875 15.835938 59.621094 15.851562 58.820312 15.855469 C 58.546875 15.855469 58.273438 15.855469 57.988281 15.855469 C 57.691406 15.855469 57.394531 15.859375 57.085938 15.859375 C 56.78125 15.859375 56.480469 15.859375 56.164062 15.859375 C 55.191406 15.863281 54.21875 15.867188 53.246094 15.871094 C 52.585938 15.871094 51.925781 15.871094 51.265625 15.875 C 49.648438 15.878906 48.03125 15.882812 46.414062 15.890625 Z M 46.414062 15.890625 "/>
<path style=" stroke:none;fill-rule:nonzero;fill:rgb(100%,100%,100%);fill-opacity:1;" d="M 77.199219 11.210938 C 77.488281 11.207031 77.78125 11.203125 78.082031 11.195312 C 78.394531 11.195312 78.707031 11.195312 79.03125 11.191406 C 79.519531 11.1875 79.519531 11.1875 80.015625 11.183594 C 80.703125 11.179688 81.390625 11.175781 82.074219 11.175781 C 83.121094 11.171875 84.167969 11.15625 85.214844 11.140625 C 85.882812 11.136719 86.550781 11.136719 87.21875 11.136719 C 87.683594 11.125 87.683594 11.125 88.160156 11.117188 C 90.449219 11.132812 91.945312 11.679688 93.59375 13.285156 C 95.210938 15.105469 95.382812 16.765625 95.402344 19.097656 C 95.410156 19.355469 95.421875 19.613281 95.429688 19.875 C 95.433594 20.125 95.433594 20.375 95.4375 20.632812 C 95.445312 20.972656 95.445312 20.972656 95.449219 21.316406 C 95.136719 22.480469 94.738281 22.84375 93.742188 23.527344 C 92.398438 23.742188 91.074219 23.707031 89.71875 23.675781 C 89.328125 23.675781 88.933594 23.671875 88.53125 23.671875 C 87.496094 23.664062 86.460938 23.648438 85.425781 23.632812 C 84.367188 23.617188 83.308594 23.609375 82.25 23.601562 C 80.175781 23.585938 78.105469 23.558594 76.03125 23.527344 C 76.132812 24.433594 76.230469 25.34375 76.335938 26.277344 C 76.734375 26.28125 77.132812 26.285156 77.546875 26.285156 C 79.027344 26.296875 80.507812 26.320312 81.992188 26.339844 C 82.632812 26.351562 83.273438 26.355469 83.914062 26.359375 C 84.839844 26.367188 85.761719 26.382812 86.683594 26.398438 C 86.96875 26.398438 87.253906 26.398438 87.550781 26.398438 C 88.835938 26.425781 89.589844 26.476562 90.714844 27.140625 C 91.296875 27.804688 91.296875 27.804688 91.488281 28.875 C 91.296875 29.945312 91.296875 29.945312 90.714844 30.613281 C 89.371094 31.402344 88.222656 31.335938 86.691406 31.316406 C 86.246094 31.320312 86.246094 31.320312 85.789062 31.320312 C 85.160156 31.320312 84.53125 31.316406 83.902344 31.308594 C 82.945312 31.300781 81.988281 31.304688 81.027344 31.308594 C 80.414062 31.304688 79.804688 31.300781 79.191406 31.300781 C 78.90625 31.300781 78.621094 31.300781 78.328125 31.300781 C 76.621094 31.277344 75.417969 31.035156 73.894531 30.25 C 73.894531 30.046875 73.894531 29.847656 73.894531 29.640625 C 73.707031 29.558594 73.519531 29.476562 73.324219 29.390625 C 72.46875 28.914062 72.09375 28.320312 71.6875 27.441406 C 71.195312 25.660156 71.285156 23.785156 71.308594 21.945312 C 71.316406 21.21875 71.3125 20.488281 71.308594 19.757812 C 71.3125 19.289062 71.316406 18.820312 71.316406 18.351562 C 71.316406 18.136719 71.316406 17.921875 71.316406 17.699219 C 71.347656 15.957031 71.714844 14.492188 72.878906 13.160156 C 73.058594 13.023438 73.234375 12.882812 73.417969 12.738281 C 73.59375 12.59375 73.769531 12.449219 73.949219 12.300781 C 75.042969 11.542969 75.859375 11.230469 77.199219 11.210938 Z M 76.410156 16.222656 C 75.835938 16.988281 75.835938 16.988281 76.03125 18.945312 C 80.867188 18.945312 85.703125 18.945312 90.6875 18.945312 C 90.796875 17.269531 90.796875 17.269531 90.40625 16.394531 C 89.355469 15.558594 88.214844 15.722656 86.910156 15.738281 C 86.628906 15.738281 86.347656 15.738281 86.054688 15.734375 C 85.460938 15.738281 84.867188 15.738281 84.273438 15.746094 C 83.363281 15.753906 82.453125 15.753906 81.542969 15.75 C 80.964844 15.75 80.386719 15.753906 79.808594 15.757812 C 79.535156 15.753906 79.261719 15.753906 78.980469 15.753906 C 78.601562 15.757812 78.601562 15.757812 78.214844 15.765625 C 77.992188 15.765625 77.765625 15.769531 77.539062 15.769531 C 76.929688 15.855469 76.929688 15.855469 76.410156 16.222656 Z M 76.410156 16.222656 "/>
<path style=" stroke:none;fill-rule:nonzero;fill:rgb(100%,100%,100%);fill-opacity:1;" d="M 134.269531 11.144531 C 134.707031 11.140625 134.707031 11.140625 135.152344 11.140625 C 135.765625 11.140625 136.378906 11.140625 136.996094 11.144531 C 137.929688 11.152344 138.867188 11.144531 139.800781 11.136719 C 140.402344 11.140625 141 11.140625 141.597656 11.144531 C 141.875 11.140625 142.152344 11.136719 142.4375 11.136719 C 144.558594 11.167969 146.269531 11.628906 147.804688 13.148438 C 147.941406 13.355469 148.082031 13.558594 148.226562 13.769531 C 148.371094 13.972656 148.515625 14.179688 148.664062 14.390625 C 149.230469 15.34375 149.355469 16.144531 149.371094 17.230469 C 149.375 17.5 149.382812 17.773438 149.386719 18.050781 C 149.398438 19.28125 149.414062 20.515625 149.417969 21.75 C 149.425781 22.398438 149.433594 23.050781 149.445312 23.699219 C 149.460938 24.636719 149.46875 25.574219 149.472656 26.515625 C 149.480469 26.804688 149.488281 27.09375 149.492188 27.394531 C 149.488281 28.675781 149.417969 29.453125 148.78125 30.585938 C 147.210938 31.5 145.691406 31.371094 143.90625 31.347656 C 143.527344 31.347656 143.148438 31.347656 142.757812 31.347656 C 141.75 31.347656 140.742188 31.335938 139.738281 31.324219 C 139.125 31.320312 138.507812 31.320312 137.894531 31.320312 C 136.710938 31.320312 135.527344 31.316406 134.34375 31.308594 C 133.796875 31.308594 133.796875 31.308594 133.238281 31.308594 C 131.03125 31.277344 129.316406 31.183594 127.589844 29.679688 C 126.183594 27.988281 125.328125 26.777344 125.402344 24.480469 C 125.695312 22.472656 126.800781 21.160156 128.339844 19.929688 C 129.398438 19.15625 129.945312 18.867188 131.25 18.875 C 131.699219 18.875 131.699219 18.875 132.15625 18.875 C 132.476562 18.878906 132.800781 18.882812 133.132812 18.882812 C 133.464844 18.886719 133.796875 18.886719 134.136719 18.886719 C 135.195312 18.890625 136.25 18.898438 137.308594 18.90625 C 138.027344 18.910156 138.742188 18.910156 139.460938 18.914062 C 141.21875 18.921875 142.976562 18.929688 144.734375 18.945312 C 144.632812 17.410156 144.632812 17.410156 143.816406 16.195312 C 142.890625 16.132812 141.988281 16.109375 141.0625 16.109375 C 140.5 16.105469 139.9375 16.097656 139.371094 16.09375 C 138.484375 16.085938 137.59375 16.078125 136.703125 16.078125 C 135.847656 16.074219 134.992188 16.066406 134.132812 16.054688 C 133.734375 16.054688 133.734375 16.054688 133.328125 16.058594 C 131.492188 16.027344 131.492188 16.027344 130.519531 15.335938 C 129.867188 14.351562 129.910156 13.679688 130.078125 12.527344 C 131.121094 10.921875 132.535156 11.128906 134.269531 11.144531 Z M 130.4375 24.097656 C 129.976562 24.753906 129.976562 24.753906 130.285156 25.570312 C 130.621094 26.316406 130.621094 26.316406 131.296875 26.582031 C 131.730469 26.609375 132.164062 26.621094 132.601562 26.617188 C 132.871094 26.617188 133.136719 26.617188 133.414062 26.617188 C 133.707031 26.617188 133.996094 26.613281 134.296875 26.613281 C 134.59375 26.613281 134.890625 26.613281 135.199219 26.613281 C 136.148438 26.609375 137.101562 26.605469 138.054688 26.601562 C 138.699219 26.601562 139.34375 26.597656 139.988281 26.597656 C 141.570312 26.59375 143.152344 26.589844 144.734375 26.582031 C 144.734375 25.574219 144.734375 24.566406 144.734375 23.527344 C 142.792969 23.496094 140.851562 23.476562 138.914062 23.460938 C 138.253906 23.453125 137.59375 23.445312 136.933594 23.4375 C 135.984375 23.421875 135.035156 23.414062 134.085938 23.410156 C 133.792969 23.402344 133.496094 23.394531 133.191406 23.390625 C 132.917969 23.390625 132.640625 23.390625 132.359375 23.390625 C 132.117188 23.386719 131.875 23.382812 131.625 23.378906 C 130.9375 23.480469 130.9375 23.480469 130.4375 24.097656 Z M 130.4375 24.097656 "/>
<path style=" stroke:none;fill-rule:nonzero;fill:rgb(100%,100%,100%);fill-opacity:1;" d="M 104.121094 3.667969 C 104.78125 4.082031 104.78125 4.082031 105.34375 4.890625 C 105.535156 5.972656 105.527344 7.050781 105.53125 8.148438 C 105.539062 8.625 105.539062 8.625 105.542969 9.109375 C 105.558594 10.121094 105.566406 11.132812 105.574219 12.144531 C 105.582031 12.832031 105.589844 13.519531 105.601562 14.203125 C 105.621094 15.886719 105.636719 17.566406 105.648438 19.25 C 107.816406 17.875 109.964844 16.484375 112.070312 15.015625 C 112.597656 14.652344 113.125 14.289062 113.652344 13.925781 C 114.007812 13.679688 114.363281 13.425781 114.71875 13.175781 C 115.246094 12.804688 115.773438 12.441406 116.304688 12.078125 C 116.613281 11.863281 116.921875 11.648438 117.238281 11.425781 C 118.40625 10.890625 119.070312 10.992188 120.304688 11.304688 C 120.917969 11.800781 120.917969 11.800781 121.222656 12.527344 C 121.316406 13.519531 121.316406 13.519531 120.917969 14.667969 C 119.34375 16.292969 117.386719 17.460938 115.429688 18.570312 C 114.769531 18.933594 114.769531 18.933594 114.199219 19.554688 C 114.371094 19.726562 114.546875 19.894531 114.722656 20.070312 C 116.042969 21.375 117.324219 22.691406 118.523438 24.109375 C 118.941406 24.585938 119.375 25.050781 119.816406 25.507812 C 121.980469 27.769531 121.980469 27.769531 122.25 28.96875 C 122.136719 29.945312 122.136719 29.945312 121.527344 30.859375 C 120.609375 31.472656 120.609375 31.472656 119.5625 31.53125 C 118.136719 31.054688 117.597656 30.480469 116.640625 29.332031 C 116.640625 29.132812 116.640625 28.929688 116.640625 28.722656 C 116.441406 28.722656 116.238281 28.722656 116.03125 28.722656 C 115.632812 28.328125 115.632812 28.328125 115.152344 27.75 C 114.109375 26.515625 113.027344 25.324219 111.925781 24.140625 C 111.761719 23.960938 111.59375 23.78125 111.421875 23.59375 C 111.027344 23.164062 110.628906 22.734375 110.230469 22.304688 C 109.085938 22.949219 107.972656 23.574219 106.925781 24.367188 C 105.953125 25.054688 105.953125 25.054688 105.34375 25.054688 C 105.351562 25.398438 105.359375 25.738281 105.363281 26.09375 C 105.371094 26.542969 105.375 26.992188 105.382812 27.441406 C 105.386719 27.667969 105.390625 27.894531 105.398438 28.125 C 105.40625 29.304688 105.402344 29.855469 104.734375 30.859375 C 102.636719 31.335938 102.636719 31.335938 101.546875 30.804688 C 100.554688 29.652344 100.71875 28.234375 100.71875 26.78125 C 100.71875 26.558594 100.71875 26.332031 100.714844 26.101562 C 100.714844 25.363281 100.710938 24.621094 100.710938 23.882812 C 100.710938 23.367188 100.710938 22.851562 100.710938 22.335938 C 100.707031 21.257812 100.707031 20.175781 100.707031 19.097656 C 100.707031 17.714844 100.703125 16.332031 100.699219 14.949219 C 100.695312 13.886719 100.695312 12.824219 100.695312 11.757812 C 100.691406 11.25 100.691406 10.738281 100.691406 10.230469 C 100.6875 9.515625 100.6875 8.804688 100.6875 8.089844 C 100.6875 7.882812 100.6875 7.671875 100.683594 7.457031 C 100.691406 6.265625 100.800781 5.328125 101.375 4.277344 C 102.441406 3.566406 102.867188 3.511719 104.121094 3.667969 Z M 104.121094 3.667969 "/>
<path style=" stroke:none;fill-rule:nonzero;fill:rgb(100%,100%,100%);fill-opacity:1;" d="M 2.621094 11.152344 C 3.03125 11.148438 3.03125 11.148438 3.453125 11.144531 C 3.75 11.148438 4.042969 11.152344 4.347656 11.152344 C 4.65625 11.152344 4.960938 11.152344 5.273438 11.152344 C 5.921875 11.152344 6.566406 11.15625 7.214844 11.164062 C 8.199219 11.171875 9.1875 11.167969 10.171875 11.164062 C 10.800781 11.167969 11.429688 11.167969 12.058594 11.171875 C 12.5 11.171875 12.5 11.171875 12.949219 11.171875 C 15.023438 11.199219 16.34375 11.535156 17.917969 12.96875 C 19.40625 14.613281 19.957031 15.769531 19.847656 18.027344 C 19.410156 18.984375 19.410156 18.984375 18.625 19.554688 C 17.707031 19.761719 17.152344 19.695312 16.183594 19.554688 C 15.160156 18.671875 14.890625 17.457031 14.351562 16.195312 C 11.125 16.09375 7.902344 15.992188 4.582031 15.890625 C 4.597656 16.863281 4.617188 17.839844 4.632812 18.84375 C 4.644531 19.789062 4.65625 20.734375 4.664062 21.679688 C 4.671875 22.335938 4.683594 22.992188 4.695312 23.648438 C 4.714844 24.59375 4.722656 25.539062 4.730469 26.480469 C 4.738281 26.773438 4.746094 27.066406 4.753906 27.371094 C 4.753906 28.796875 4.742188 29.425781 3.847656 30.59375 C 3.054688 31.167969 3.054688 31.167969 2.390625 31.28125 C 1.792969 31.167969 1.199219 31.015625 0.609375 30.859375 C -0.078125 29.828125 -0.078125 29.46875 -0.0898438 28.261719 C -0.09375 27.917969 -0.0976562 27.570312 -0.101562 27.214844 C -0.101562 26.84375 -0.101562 26.472656 -0.101562 26.089844 C -0.105469 25.707031 -0.105469 25.324219 -0.109375 24.929688 C -0.113281 24.121094 -0.113281 23.3125 -0.113281 22.5 C -0.113281 21.464844 -0.121094 20.429688 -0.132812 19.394531 C -0.140625 18.402344 -0.140625 17.414062 -0.140625 16.425781 C -0.144531 16.054688 -0.148438 15.679688 -0.152344 15.296875 C -0.152344 14.953125 -0.148438 14.605469 -0.148438 14.25 C -0.148438 13.945312 -0.148438 13.644531 -0.152344 13.328125 C 0.144531 11.761719 1.085938 11.152344 2.621094 11.152344 Z M 2.621094 11.152344 "/>
<path style=" stroke:none;fill-rule:nonzero;fill:rgb(100%,100%,100%);fill-opacity:1;" d="M 26.105469 11.144531 C 26.429688 11.140625 26.75 11.140625 27.082031 11.136719 C 27.414062 11.144531 27.746094 11.148438 28.089844 11.152344 C 28.59375 11.144531 28.59375 11.144531 29.101562 11.136719 C 29.425781 11.140625 29.746094 11.140625 30.078125 11.144531 C 30.515625 11.144531 30.515625 11.144531 30.964844 11.148438 C 31.753906 11.304688 31.753906 11.304688 32.464844 11.726562 C 33.277344 12.996094 33.128906 14.246094 33.097656 15.722656 C 33.09375 16.03125 33.09375 16.34375 33.089844 16.660156 C 33.085938 17.652344 33.070312 18.640625 33.054688 19.632812 C 33.046875 20.304688 33.042969 20.976562 33.035156 21.648438 C 33.023438 23.292969 33.003906 24.9375 32.976562 26.582031 C 33.230469 26.574219 33.484375 26.566406 33.742188 26.558594 C 34.242188 26.550781 34.242188 26.550781 34.746094 26.542969 C 35.074219 26.535156 35.402344 26.527344 35.742188 26.519531 C 36.640625 26.582031 36.640625 26.582031 37.632812 27.25 C 38.167969 28.109375 38.167969 28.109375 38.359375 28.875 C 38.074219 30.019531 37.558594 30.441406 36.640625 31.167969 C 35.738281 31.382812 34.867188 31.375 33.941406 31.359375 C 33.554688 31.359375 33.554688 31.359375 33.15625 31.359375 C 32.613281 31.359375 32.066406 31.355469 31.523438 31.347656 C 30.691406 31.339844 29.859375 31.34375 29.027344 31.347656 C 28.496094 31.347656 27.964844 31.34375 27.433594 31.339844 C 27.0625 31.34375 27.0625 31.34375 26.683594 31.34375 C 25.484375 31.320312 24.859375 31.242188 23.8125 30.613281 C 23.207031 29.945312 23.207031 29.945312 23.015625 28.875 C 23.207031 27.804688 23.207031 27.804688 23.742188 27.0625 C 24.734375 26.582031 24.734375 26.582031 28.398438 26.582031 C 28.398438 23.054688 28.398438 19.523438 28.398438 15.890625 C 27.1875 15.890625 25.980469 15.890625 24.734375 15.890625 C 23.742188 15.238281 23.742188 15.238281 23.207031 14.359375 C 23.035156 13.425781 23.035156 13.425781 23.207031 12.527344 C 24.097656 11.394531 24.679688 11.148438 26.105469 11.144531 Z M 26.105469 11.144531 "/>
<path style=" stroke:none;fill-rule:nonzero;fill:rgb(100%,100%,100%);fill-opacity:1;" d="M 31.296875 3.609375 C 32.367188 3.972656 32.367188 3.972656 32.976562 4.582031 C 33.238281 5.667969 33.445312 6.597656 32.976562 7.640625 C 32.246094 8.457031 31.59375 8.636719 30.535156 8.707031 C 29.535156 8.667969 29.351562 8.589844 28.550781 7.90625 C 28.007812 6.863281 27.875 6.351562 28.089844 5.195312 C 29.734375 3.246094 29.734375 3.246094 31.296875 3.609375 Z M 31.296875 3.609375 "/>
</g>
</svg>
